<?xml version="1.0" encoding="UTF-8" standalone="no"?>
<svg width="35px" height="32px" viewBox="0 0 35 32" version="1.1" xmlns="http://www.w3.org/2000/svg" xmlns:xlink="http://www.w3.org/1999/xlink" xmlns:sketch="http://www.bohemiancoding.com/sketch/ns">
    <!-- Generator: Sketch 3.1.1 (8761) - http://www.bohemiancoding.com/sketch -->
    <g id="Page-2" stroke="none" stroke-width="1" fill="none" fill-rule="evenodd" sketch:type="MSPage">
        <g id="mushroom-2-+-by-2" sketch:type="MSLayerGroup">
            <g id="mushroom-2" transform="translate(11.000000, 0.000000)" sketch:type="MSShapeGroup">
                <path d="M0,8 L24,8 L24,12 L0,12 L0,8 Z" id="Fill-2" fill="#E46A75"></path>
                <path d="M4,4 L20,4 L20,8 L4,8 L4,4 Z" id="Fill-3" fill="#E46A75"></path>
                <path d="M8,0 L16,0 L16,4 L8,4 L8,0 Z" id="Fill-4" fill="#E46A75"></path>
                <path d="M8,20 L16,20 L16,24 L8,24 L8,20 Z" id="Fill-5" fill="#F1AC8C"></path>
                <path d="M8,16 L16,16 L16,20 L8,20 L8,16 Z" id="Fill-6" fill="#B46479"></path>
                <path d="M8,12 L16,12 L16,16 L8,16 L8,12 Z" id="Fill-7" fill="#65546E"></path>
                <path d="M8,24 L16,24 L16,32 L8,32 L8,24 Z" id="Fill-8" fill="#F1AC8C"></path>
                <path d="M14,8 L18,8 L18,12 L14,12 L14,8 Z" id="Fill-9" fill="#F1AC8C"></path>
                <path d="M8,4 L12,4 L12,8 L8,8 L8,4 Z" id="Fill-10" fill="#F1AC8C"></path>
            </g>
            <text id="by" sketch:type="MSTextLayer" font-family="Open Sans" font-size="11" font-weight="normal" letter-spacing="0.5" fill="#4A4A4A">
                <tspan x="0" y="26">b</tspan>
                <tspan x="7.24072266" y="26">y</tspan>
            </text>
        </g>
    </g>
</svg>