<?xml version="1.0" encoding="utf-8"?>
<!-- Generator: Adobe Illustrator 16.0.0, SVG Export Plug-In . SVG Version: 6.00 Build 0)  -->
<!DOCTYPE svg PUBLIC "-//W3C//DTD SVG 1.1//EN" "http://www.w3.org/Graphics/SVG/1.1/DTD/svg11.dtd" [
	<!ENTITY ns_extend "http://ns.adobe.com/Extensibility/1.0/">
	<!ENTITY ns_ai "http://ns.adobe.com/AdobeIllustrator/10.0/">
	<!ENTITY ns_graphs "http://ns.adobe.com/Graphs/1.0/">
	<!ENTITY ns_vars "http://ns.adobe.com/Variables/1.0/">
	<!ENTITY ns_imrep "http://ns.adobe.com/ImageReplacement/1.0/">
	<!ENTITY ns_sfw "http://ns.adobe.com/SaveForWeb/1.0/">
	<!ENTITY ns_custom "http://ns.adobe.com/GenericCustomNamespace/1.0/">
	<!ENTITY ns_adobe_xpath "http://ns.adobe.com/XPath/1.0/">
]>
<svg version="1.1"
	 id="Layer_1" xmlns:x="&ns_extend;" xmlns:i="&ns_ai;" xmlns:graph="&ns_graphs;" xmlns:sketch="http://www.bohemiancoding.com/sketch/ns"
	 xmlns="http://www.w3.org/2000/svg" xmlns:xlink="http://www.w3.org/1999/xlink" x="0px" y="0px" width="35px" height="32px"
	 viewBox="0 0 35 32" enable-background="new 0 0 35 32" xml:space="preserve">
<metadata>
	<sfw  xmlns="&ns_sfw;">
		<slices></slices>
		<sliceSourceBounds  height="32" width="34.055" y="128.5" x="106.945" bottomLeftOrigin="true"></sliceSourceBounds>
	</sfw>
</metadata>
<g id="mushroom-2" transform="translate(11.000000, 0.000000)" sketch:type="MSShapeGroup">
	<path id="Fill-2" fill="#E46A75" d="M0,8h24v4H0V8z"/>
	<path id="Fill-3" fill="#E46A75" d="M4,4h16v4H4V4z"/>
	<path id="Fill-4" fill="#E46A75" d="M8,0h8v4H8V0z"/>
	<path id="Fill-5" fill="#F1AC8C" d="M8,20h8v4H8V20z"/>
	<path id="Fill-6" fill="#B46479" d="M8,16h8v4H8V16z"/>
	<path id="Fill-7" fill="#65546E" d="M8,12h8v4H8V12z"/>
	<path id="Fill-8" fill="#F1AC8C" d="M8,24h8v8H8V24z"/>
	<path id="Fill-9" fill="#F1AC8C" d="M14,8h4v4h-4V8z"/>
	<path id="Fill-10" fill="#F1AC8C" d="M8,4h4v4H8V4z"/>
</g>
<g enable-background="new    ">
	<path fill="#4A4A4A" d="M3.685,20.017c0.773,0,1.374,0.264,1.802,0.792c0.428,0.528,0.642,1.275,0.642,2.242
		s-0.216,1.719-0.647,2.254c-0.432,0.535-1.031,0.803-1.797,0.803c-0.383,0-0.733-0.07-1.05-0.212
		c-0.317-0.142-0.583-0.359-0.798-0.653H1.772L1.584,26H0.945v-8.357h0.892v2.03c0,0.455-0.014,0.863-0.043,1.225h0.043
		C2.252,20.311,2.868,20.017,3.685,20.017z M3.556,20.764c-0.609,0-1.047,0.174-1.316,0.523c-0.269,0.349-0.403,0.938-0.403,1.764
		c0,0.828,0.138,1.419,0.414,1.775s0.718,0.535,1.327,0.535c0.548,0,0.956-0.2,1.225-0.6s0.403-0.973,0.403-1.721
		c0-0.767-0.134-1.338-0.403-1.714S4.118,20.764,3.556,20.764z"/>
</g>
<text transform="matrix(1 0 0 1 7.2402 26)" fill="#4A4A4A" font-family="'OpenSans'" font-size="11"> </text>
<g enable-background="new    ">
	<path fill="#4A4A4A" d="M7.251,20.113h0.956l1.289,3.357c0.283,0.766,0.458,1.319,0.526,1.659h0.043
		c0.046-0.183,0.144-0.495,0.293-0.938c0.148-0.442,0.634-1.802,1.458-4.079h0.956l-2.53,6.703c-0.25,0.662-0.543,1.133-0.878,1.41
		c-0.334,0.277-0.746,0.416-1.232,0.416c-0.272,0-0.541-0.03-0.806-0.092v-0.714c0.197,0.043,0.417,0.064,0.661,0.064
		c0.612,0,1.049-0.344,1.311-1.031l0.328-0.838L7.251,20.113z"/>
</g>
</svg>
