<?xml version="1.0" encoding="UTF-8" standalone="no"?>
<svg width="334px" height="292px" viewBox="0 0 334 292" version="1.1" xmlns="http://www.w3.org/2000/svg" xmlns:xlink="http://www.w3.org/1999/xlink" xmlns:sketch="http://www.bohemiancoding.com/sketch/ns">
    <!-- Generator: Sketch 3.1.1 (8761) - http://www.bohemiancoding.com/sketch -->
    <title>Untitled 8</title>
    <desc>Created with Sketch.</desc>
    <defs></defs>
    <g id="Page-1" stroke="none" stroke-width="1" fill="none" fill-rule="evenodd" sketch:type="MSPage">
        <g id="Path-91" sketch:type="MSLayerGroup" transform="translate(141.838457, 274.093267) rotate(-150.000000) translate(-141.838457, -274.093267) translate(123.838457, 263.593267)" stroke="#4A4A4A">
            <path d="M-1.55273692,21.587141 L35.4472631,0.587141002" id="Path-86" sketch:type="MSShapeGroup"></path>
            <path id="Path-86-decoration-1" d="M27.0622802,8.79570654 C29.8314072,6.01670747 32.2049446,3.63470826 34.9740715,0.855709185 C31.168373,1.80836784 27.9063456,2.6249324 24.1006471,3.57759105"></path>
        </g>
        <g id="Path-94" sketch:type="MSLayerGroup" transform="translate(107.838457, 17.093267) rotate(-330.000000) translate(-107.838457, -17.093267) translate(89.838457, 6.593267)" stroke="#4A4A4A">
            <path d="M-0.916336285,21.529047 L36.0836637,0.529047001" id="Path-86" sketch:type="MSShapeGroup"></path>
            <path id="Path-86-decoration-1" d="M27.6986808,8.73761254 C30.4678078,5.95861346 32.8413452,3.57661426 35.6104722,0.797615183 C31.8047736,1.75027384 28.5427463,2.5668384 24.7370477,3.51949705"></path>
        </g>
        <path d="M8.33447266,10.5678711 L8.28613281,10.5678711 C7.8743469,11.1658559 7.25846764,11.4648438 6.43847656,11.4648438 C5.66861594,11.4648438 5.06974498,11.2016628 4.6418457,10.675293 C4.21394643,10.1489231 4,9.40055824 4,8.43017578 C4,7.45979333 4.2148416,6.70605737 4.64453125,6.16894531 C5.0742209,5.63183325 5.67219669,5.36328125 6.43847656,5.36328125 C7.23698316,5.36328125 7.84928172,5.65331741 8.27539062,6.23339844 L8.34521484,6.23339844 L8.30761719,5.80908203 L8.28613281,5.39550781 L8.28613281,3 L9.17773438,3 L9.17773438,11.3574219 L8.45263672,11.3574219 L8.33447266,10.5678711 Z M6.55126953,10.7182617 C7.15999653,10.7182617 7.60131699,10.5526547 7.87524414,10.2214355 C8.14917129,9.89021644 8.28613281,9.35579796 8.28613281,8.61816406 L8.28613281,8.43017578 C8.28613281,7.59586171 8.14738094,7.00057144 7.86987305,6.64428711 C7.59236515,6.28800278 7.14925435,6.10986328 6.54052734,6.10986328 C6.01773827,6.10986328 5.61759579,6.31306763 5.34008789,6.71948242 C5.06257999,7.12589721 4.92382812,7.69970333 4.92382812,8.44091797 C4.92382812,9.19287485 5.06168482,9.76041475 5.33740234,10.1435547 C5.61311987,10.5266946 6.01773822,10.7182617 6.55126953,10.7182617 L6.55126953,10.7182617 Z M14.2539062,5.36328125 C14.5153008,5.36328125 14.7498362,5.38476541 14.9575195,5.42773438 L14.8339844,6.25488281 C14.5904936,6.20117161 14.375652,6.17431641 14.1894531,6.17431641 C13.7132138,6.17431641 13.3059099,6.36767385 12.9675293,6.75439453 C12.6291487,7.14111521 12.4599609,7.62271847 12.4599609,8.19921875 L12.4599609,11.3574219 L11.5683594,11.3574219 L11.5683594,5.47070312 L12.3041992,5.47070312 L12.40625,6.56103516 L12.4492188,6.56103516 C12.6676443,6.17789522 12.9308253,5.88248802 13.2387695,5.67480469 C13.5467138,5.46712136 13.8850893,5.36328125 14.2539062,5.36328125 L14.2539062,5.36328125 Z M19.9584961,11.3574219 L19.78125,10.5195312 L19.7382812,10.5195312 C19.44466,10.8883482 19.1519383,11.1381016 18.8601074,11.2687988 C18.5682765,11.3994961 18.203941,11.4648438 17.7670898,11.4648438 C17.1834281,11.4648438 16.7259945,11.3144546 16.3947754,11.0136719 C16.0635563,10.7128891 15.8979492,10.2849963 15.8979492,9.72998047 C15.8979492,8.54117244 16.8486233,7.9181318 18.75,7.86083984 L19.7490234,7.82861328 L19.7490234,7.46337891 C19.7490234,7.00146253 19.6496592,6.66040149 19.4509277,6.44018555 C19.2521963,6.2199696 18.9344097,6.10986328 18.4975586,6.10986328 C18.0069962,6.10986328 17.4519888,6.2602524 16.8325195,6.56103516 L16.5585938,5.87890625 C16.8486343,5.72135338 17.1664208,5.59781946 17.5119629,5.50830078 C17.857505,5.4187821 18.2039371,5.37402344 18.5512695,5.37402344 C19.253096,5.37402344 19.7731917,5.5297836 20.1115723,5.84130859 C20.4499529,6.15283359 20.6191406,6.65234031 20.6191406,7.33984375 L20.6191406,11.3574219 L19.9584961,11.3574219 Z M17.9443359,10.7290039 C18.4993517,10.7290039 18.9353011,10.5768244 19.2521973,10.2724609 C19.5690934,9.96809744 19.7275391,9.54199493 19.7275391,8.99414062 L19.7275391,8.46240234 L18.8359375,8.5 C18.1269496,8.52506523 17.6158056,8.63517155 17.3024902,8.83032227 C16.9891749,9.02547298 16.8325195,9.32893674 16.8325195,9.74072266 C16.8325195,10.0629899 16.9300934,10.3082674 17.1252441,10.4765625 C17.3203949,10.6448576 17.5934227,10.7290039 17.9443359,10.7290039 L17.9443359,10.7290039 Z M27.7739258,5.47070312 L27.7739258,6.03466797 L26.6835938,6.16357422 C26.7838547,6.28890037 26.873372,6.45271709 26.9521484,6.6550293 C27.0309249,6.85734151 27.0703125,7.08561071 27.0703125,7.33984375 C27.0703125,7.91634403 26.8733744,8.37646313 26.4794922,8.72021484 C26.08561,9.06396656 25.5449253,9.23583984 24.8574219,9.23583984 C24.6819653,9.23583984 24.5172534,9.22151707 24.3632812,9.19287109 C23.9837221,9.39339293 23.7939453,9.64583181 23.7939453,9.95019531 C23.7939453,10.1113289 23.8601881,10.230387 23.9926758,10.307373 C24.1251634,10.3843591 24.3525375,10.4228516 24.6748047,10.4228516 L25.7167969,10.4228516 C26.3541699,10.4228516 26.8438297,10.5571276 27.185791,10.8256836 C27.5277524,11.0942396 27.6987305,11.4845352 27.6987305,11.996582 C27.6987305,12.648278 27.4373399,13.1450992 26.9145508,13.4870605 C26.3917617,13.8290219 25.629074,14 24.6264648,14 C23.8566042,14 23.2631043,13.8567723 22.8459473,13.5703125 C22.4287902,13.2838527 22.2202148,12.8792344 22.2202148,12.3564453 C22.2202148,11.9983706 22.334797,11.6886406 22.5639648,11.4272461 C22.7931327,11.1658516 23.1153951,10.9886072 23.5307617,10.8955078 C23.3803703,10.8274736 23.2541509,10.7218432 23.1520996,10.5786133 C23.0500483,10.4353834 22.9990234,10.2688812 22.9990234,10.0791016 C22.9990234,9.86425674 23.0563145,9.67627034 23.1708984,9.51513672 C23.2854823,9.3540031 23.4663074,9.19824294 23.7133789,9.04785156 C23.4090154,8.92252542 23.1610524,8.70947416 22.9694824,8.40869141 C22.7779125,8.10790865 22.6821289,7.76416209 22.6821289,7.37744141 C22.6821289,6.73290693 22.8754863,6.23608573 23.262207,5.88696289 C23.6489277,5.53784005 24.1967738,5.36328125 24.9057617,5.36328125 C25.213706,5.36328125 25.4912097,5.39908818 25.7382812,5.47070312 L27.7739258,5.47070312 Z M23.0795898,12.3457031 C23.0795898,12.6643896 23.2138658,12.9060864 23.4824219,13.0708008 C23.7509779,13.2355151 24.1359024,13.3178711 24.637207,13.3178711 C25.3855832,13.3178711 25.9396955,13.2059744 26.2995605,12.9821777 C26.6594256,12.758381 26.8393555,12.4549173 26.8393555,12.0717773 C26.8393555,11.7530909 26.7408864,11.531983 26.5439453,11.4084473 C26.3470042,11.2849115 25.9764025,11.2231445 25.4321289,11.2231445 L24.3632812,11.2231445 C23.9586568,11.2231445 23.6435558,11.3198233 23.4179688,11.5131836 C23.1923817,11.7065439 23.0795898,11.9840477 23.0795898,12.3457031 L23.0795898,12.3457031 Z M23.5629883,7.35595703 C23.5629883,7.76774294 23.6793608,8.07926327 23.9121094,8.29052734 C24.1448579,8.50179142 24.4689107,8.60742188 24.8842773,8.60742188 C25.7543989,8.60742188 26.1894531,8.18490006 26.1894531,7.33984375 C26.1894531,6.45539922 25.7490278,6.01318359 24.8681641,6.01318359 C24.4492167,6.01318359 24.1269543,6.12597543 23.9013672,6.3515625 C23.6757801,6.57714957 23.5629883,6.91194439 23.5629883,7.35595703 L23.5629883,7.35595703 Z M38.0986328,10.7290039 C38.2561857,10.7290039 38.4083652,10.7173667 38.5551758,10.6940918 C38.7019864,10.6708169 38.8183589,10.6466473 38.9042969,10.621582 L38.9042969,11.3037109 C38.8076167,11.3502606 38.6652841,11.3887531 38.4772949,11.4191895 C38.2893057,11.4496258 38.1201179,11.4648438 37.9697266,11.4648438 C36.831049,11.4648438 36.2617188,10.8650776 36.2617188,9.66552734 L36.2617188,6.16357422 L35.418457,6.16357422 L35.418457,5.73388672 L36.2617188,5.36328125 L36.6376953,4.10644531 L37.1533203,4.10644531 L37.1533203,5.47070312 L38.8613281,5.47070312 L38.8613281,6.16357422 L37.1533203,6.16357422 L37.1533203,9.62792969 C37.1533203,9.98242365 37.2374666,10.2545563 37.4057617,10.4443359 C37.5740568,10.6341155 37.8050116,10.7290039 38.0986328,10.7290039 L38.0986328,10.7290039 Z M45.6616211,8.40869141 C45.6616211,9.36833162 45.4199243,10.1175917 44.9365234,10.6564941 C44.4531226,11.1953966 43.7853233,11.4648438 42.9331055,11.4648438 C42.4067356,11.4648438 41.9394552,11.3413098 41.53125,11.0942383 C41.1230448,10.8471667 40.8079438,10.4926781 40.5859375,10.0307617 C40.3639312,9.56884535 40.2529297,9.02816065 40.2529297,8.40869141 C40.2529297,7.44905119 40.4928361,6.70158145 40.9726562,6.16625977 C41.4524764,5.63093808 42.1184853,5.36328125 42.9707031,5.36328125 C43.794275,5.36328125 44.4486467,5.63720429 44.9338379,6.18505859 C45.4190291,6.7329129 45.6616211,7.47411642 45.6616211,8.40869141 L45.6616211,8.40869141 Z M41.1767578,8.40869141 C41.1767578,9.16064829 41.3271469,9.73355923 41.6279297,10.1274414 C41.9287124,10.5213236 42.3709281,10.7182617 42.9545898,10.7182617 C43.5382516,10.7182617 43.9813624,10.5222188 44.2839355,10.130127 C44.5865087,9.73803515 44.737793,9.16422904 44.737793,8.40869141 C44.737793,7.66031527 44.5865087,7.0918802 44.2839355,6.70336914 C43.9813624,6.31485808 43.5346709,6.12060547 42.9438477,6.12060547 C42.3601859,6.12060547 41.9197606,6.31217256 41.6225586,6.6953125 C41.3253566,7.07845244 41.1767578,7.64957303 41.1767578,8.40869141 L41.1767578,8.40869141 Z M58.5854492,11.3574219 L58.5854492,7.52783203 C58.5854492,7.05875417 58.4851898,6.70695104 58.284668,6.47241211 C58.0841461,6.23787318 57.7726258,6.12060547 57.3500977,6.12060547 C56.7950819,6.12060547 56.3850925,6.27994632 56.1201172,6.59863281 C55.8551419,6.9173193 55.7226562,7.40787429 55.7226562,8.0703125 L55.7226562,11.3574219 L54.8310547,11.3574219 L54.8310547,7.52783203 C54.8310547,7.05875417 54.7307953,6.70695104 54.5302734,6.47241211 C54.3297516,6.23787318 54.0164409,6.12060547 53.590332,6.12060547 C53.0317355,6.12060547 52.6226413,6.28800288 52.3630371,6.62280273 C52.1034329,6.95760259 51.9736328,7.50634384 51.9736328,8.26904297 L51.9736328,11.3574219 L51.0820312,11.3574219 L51.0820312,5.47070312 L51.8071289,5.47070312 L51.9521484,6.27636719 L51.9951172,6.27636719 C52.1634123,5.98990742 52.4006332,5.76611409 52.7067871,5.60498047 C53.012941,5.44384685 53.3557924,5.36328125 53.7353516,5.36328125 C54.6556036,5.36328125 55.25716,5.69628573 55.5400391,6.36230469 L55.5830078,6.36230469 C55.7584644,6.05436044 56.0126936,5.81087329 56.3457031,5.63183594 C56.6787126,5.45279858 57.0582661,5.36328125 57.484375,5.36328125 C58.150394,5.36328125 58.6490055,5.53425936 58.9802246,5.8762207 C59.3114437,6.21818205 59.4770508,6.76513296 59.4770508,7.51708984 L59.4770508,11.3574219 L58.5854492,11.3574219 Z M65.434082,11.3574219 L65.2568359,10.5195312 L65.2138672,10.5195312 C64.9202459,10.8883482 64.6275242,11.1381016 64.3356934,11.2687988 C64.0438625,11.3994961 63.6795269,11.4648438 63.2426758,11.4648438 C62.659014,11.4648438 62.2015804,11.3144546 61.8703613,11.0136719 C61.5391422,10.7128891 61.3735352,10.2849963 61.3735352,9.72998047 C61.3735352,8.54117244 62.3242092,7.9181318 64.2255859,7.86083984 L65.2246094,7.82861328 L65.2246094,7.46337891 C65.2246094,7.00146253 65.1252451,6.66040149 64.9265137,6.44018555 C64.7277822,6.2199696 64.4099957,6.10986328 63.9731445,6.10986328 C63.4825822,6.10986328 62.9275747,6.2602524 62.3081055,6.56103516 L62.0341797,5.87890625 C62.3242202,5.72135338 62.6420067,5.59781946 62.9875488,5.50830078 C63.3330909,5.4187821 63.679523,5.37402344 64.0268555,5.37402344 C64.7286819,5.37402344 65.2487776,5.5297836 65.5871582,5.84130859 C65.9255388,6.15283359 66.0947266,6.65234031 66.0947266,7.33984375 L66.0947266,11.3574219 L65.434082,11.3574219 Z M63.4199219,10.7290039 C63.9749377,10.7290039 64.4108871,10.5768244 64.7277832,10.2724609 C65.0446793,9.96809744 65.203125,9.54199493 65.203125,8.99414062 L65.203125,8.46240234 L64.3115234,8.5 C63.6025355,8.52506523 63.0913915,8.63517155 62.7780762,8.83032227 C62.4647608,9.02547298 62.3081055,9.32893674 62.3081055,9.74072266 C62.3081055,10.0629899 62.4056794,10.3082674 62.6008301,10.4765625 C62.7959808,10.6448576 63.0690087,10.7290039 63.4199219,10.7290039 L63.4199219,10.7290039 Z M69.3125,8.34423828 C69.4664721,8.12581271 69.7010075,7.83935724 70.0161133,7.48486328 L71.9174805,5.47070312 L72.9755859,5.47070312 L70.5908203,7.97900391 L73.1420898,11.3574219 L72.0625,11.3574219 L69.9838867,8.57519531 L69.3125,9.15527344 L69.3125,11.3574219 L68.4316406,11.3574219 L68.4316406,3 L69.3125,3 L69.3125,7.43115234 C69.3125,7.62809343 69.2981772,7.93245237 69.2695312,8.34423828 L69.3125,8.34423828 Z M76.972168,11.4648438 C76.1020464,11.4648438 75.4154485,11.1998724 74.9123535,10.6699219 C74.4092586,10.1399713 74.1577148,9.40413882 74.1577148,8.46240234 C74.1577148,7.51350437 74.3913551,6.75976842 74.8586426,6.20117188 C75.3259301,5.64257533 75.9534466,5.36328125 76.7412109,5.36328125 C77.4788448,5.36328125 78.0624979,5.60587323 78.4921875,6.09106445 C78.9218771,6.57625568 79.1367188,7.21630462 79.1367188,8.01123047 L79.1367188,8.57519531 L75.081543,8.57519531 C75.0994467,9.2662795 75.2740055,9.79085107 75.6052246,10.1489258 C75.9364437,10.5070005 76.402829,10.6860352 77.0043945,10.6860352 C77.6381868,10.6860352 78.2648081,10.5535495 78.8842773,10.2885742 L78.8842773,11.0834961 C78.5691716,11.2195645 78.2710789,11.3171384 77.9899902,11.3762207 C77.7089016,11.435303 77.3696309,11.4648438 76.972168,11.4648438 L76.972168,11.4648438 Z M76.7304688,6.10986328 C76.2578101,6.10986328 75.8809422,6.2638331 75.5998535,6.57177734 C75.3187649,6.87972159 75.1531578,7.3058241 75.1030273,7.85009766 L78.1806641,7.85009766 C78.1806641,7.28792037 78.0553398,6.85734199 77.8046875,6.55834961 C77.5540352,6.25935723 77.1959659,6.10986328 76.7304688,6.10986328 L76.7304688,6.10986328 Z M16.5480957,24.7514648 C16.5480957,25.2993191 16.3439962,25.721841 15.935791,26.019043 C15.5275858,26.316245 14.9546749,26.4648438 14.217041,26.4648438 C13.4364382,26.4648438 12.8277203,26.3413098 12.3908691,26.0942383 L12.3908691,25.2670898 C12.6737482,25.4103197 12.9772119,25.5231116 13.3012695,25.6054688 C13.6253271,25.6878259 13.9377426,25.7290039 14.2385254,25.7290039 C14.7040225,25.7290039 15.0620918,25.6547045 15.3127441,25.5061035 C15.5633964,25.3575025 15.6887207,25.1310237 15.6887207,24.8266602 C15.6887207,24.5974923 15.5893565,24.4014494 15.390625,24.2385254 C15.1918935,24.0756014 14.8042835,23.8831391 14.2277832,23.6611328 C13.6799289,23.4570302 13.2905285,23.2788907 13.0595703,23.126709 C12.8286121,22.9745272 12.6567388,22.8017588 12.5439453,22.6083984 C12.4311518,22.4150381 12.3747559,22.1840834 12.3747559,21.9155273 C12.3747559,21.4357072 12.5699036,21.0570489 12.9602051,20.779541 C13.3505065,20.5020331 13.8858202,20.3632812 14.5661621,20.3632812 C15.1999543,20.3632812 15.8194143,20.4921862 16.4245605,20.75 L16.107666,21.4750977 C15.5168427,21.2316069 14.9815291,21.1098633 14.501709,21.1098633 C14.0791808,21.1098633 13.7604991,21.1761061 13.5456543,21.3085938 C13.3308095,21.4410814 13.2233887,21.6236968 13.2233887,21.8564453 C13.2233887,22.0139982 13.2636715,22.1482742 13.3442383,22.2592773 C13.4248051,22.3702805 13.5546052,22.475911 13.7336426,22.5761719 C13.9126799,22.6764328 14.2564265,22.8214509 14.7648926,23.0112305 C15.4631383,23.2654635 15.9348946,23.5214831 16.1801758,23.7792969 C16.425457,24.0371107 16.5480957,24.3611634 16.5480957,24.7514648 L16.5480957,24.7514648 Z M23.5793457,23.4086914 C23.5793457,24.3683316 23.3376489,25.1175917 22.854248,25.6564941 C22.3708472,26.1953966 21.7030479,26.4648438 20.8508301,26.4648438 C20.3244603,26.4648438 19.8571798,26.3413098 19.4489746,26.0942383 C19.0407694,25.8471667 18.7256684,25.4926781 18.5036621,25.0307617 C18.2816558,24.5688453 18.1706543,24.0281606 18.1706543,23.4086914 C18.1706543,22.4490512 18.4105608,21.7015815 18.8903809,21.1662598 C19.370201,20.6309381 20.0362099,20.3632812 20.8884277,20.3632812 C21.7119996,20.3632812 22.3663713,20.6372043 22.8515625,21.1850586 C23.3367537,21.7329129 23.5793457,22.4741164 23.5793457,23.4086914 L23.5793457,23.4086914 Z M19.0944824,23.4086914 C19.0944824,24.1606483 19.2448715,24.7335592 19.5456543,25.1274414 C19.8464371,25.5213236 20.2886527,25.7182617 20.8723145,25.7182617 C21.4559762,25.7182617 21.899087,25.5222188 22.2016602,25.130127 C22.5042333,24.7380351 22.6555176,24.164229 22.6555176,23.4086914 C22.6555176,22.6603153 22.5042333,22.0918802 22.2016602,21.7033691 C21.899087,21.3148581 21.4523955,21.1206055 20.8615723,21.1206055 C20.2779105,21.1206055 19.8374852,21.3121726 19.5402832,21.6953125 C19.2430812,22.0784524 19.0944824,22.649573 19.0944824,23.4086914 L19.0944824,23.4086914 Z M33.145752,26.3574219 L33.145752,22.527832 C33.145752,22.0587542 33.0454925,21.706951 32.8449707,21.4724121 C32.6444489,21.2378732 32.3329285,21.1206055 31.9104004,21.1206055 C31.3553846,21.1206055 30.9453952,21.2799463 30.6804199,21.5986328 C30.4154446,21.9173193 30.282959,22.4078743 30.282959,23.0703125 L30.282959,26.3574219 L29.3913574,26.3574219 L29.3913574,22.527832 C29.3913574,22.0587542 29.291098,21.706951 29.0905762,21.4724121 C28.8900543,21.2378732 28.5767437,21.1206055 28.1506348,21.1206055 C27.5920382,21.1206055 27.182944,21.2880029 26.9233398,21.6228027 C26.6637357,21.9576026 26.5339355,22.5063438 26.5339355,23.269043 L26.5339355,26.3574219 L25.642334,26.3574219 L25.642334,20.4707031 L26.3674316,20.4707031 L26.5124512,21.2763672 L26.5554199,21.2763672 C26.723715,20.9899074 26.960936,20.7661141 27.2670898,20.6049805 C27.5732437,20.4438469 27.9160951,20.3632812 28.2956543,20.3632812 C29.2159063,20.3632812 29.8174628,20.6962857 30.1003418,21.3623047 L30.1433105,21.3623047 C30.3187672,21.0543604 30.5729964,20.8108733 30.9060059,20.6318359 C31.2390153,20.4527986 31.6185688,20.3632812 32.0446777,20.3632812 C32.7106967,20.3632812 33.2093082,20.5342594 33.5405273,20.8762207 C33.8717464,21.218182 34.0373535,21.765133 34.0373535,22.5170898 L34.0373535,26.3574219 L33.145752,26.3574219 Z M38.861084,26.4648438 C37.9909624,26.4648438 37.3043645,26.1998724 36.8012695,25.6699219 C36.2981746,25.1399713 36.0466309,24.4041388 36.0466309,23.4624023 C36.0466309,22.5135044 36.2802711,21.7597684 36.7475586,21.2011719 C37.2148461,20.6425753 37.8423626,20.3632812 38.630127,20.3632812 C39.3677608,20.3632812 39.9514139,20.6058732 40.3811035,21.0910645 C40.8107932,21.5762557 41.0256348,22.2163046 41.0256348,23.0112305 L41.0256348,23.5751953 L36.970459,23.5751953 C36.9883627,24.2662795 37.1629215,24.7908511 37.4941406,25.1489258 C37.8253597,25.5070005 38.291745,25.6860352 38.8933105,25.6860352 C39.5271028,25.6860352 40.1537241,25.5535495 40.7731934,25.2885742 L40.7731934,26.0834961 C40.4580876,26.2195645 40.1599949,26.3171384 39.8789062,26.3762207 C39.5978176,26.435303 39.2585469,26.4648438 38.861084,26.4648438 L38.861084,26.4648438 Z M38.6193848,21.1098633 C38.1467262,21.1098633 37.7698582,21.2638331 37.4887695,21.5717773 C37.2076809,21.8797216 37.0420738,22.3058241 36.9919434,22.8500977 L40.0695801,22.8500977 C40.0695801,22.2879204 39.9442558,21.857342 39.6936035,21.5583496 C39.4429512,21.2593572 39.0848819,21.1098633 38.6193848,21.1098633 L38.6193848,21.1098633 Z M51.2102051,26.3574219 L50.1306152,22.9038086 C50.062581,22.6925445 49.9354664,22.2127316 49.7492676,21.4643555 L49.7062988,21.4643555 C49.5630689,22.0909862 49.4377447,22.5743798 49.3303223,22.9145508 L48.2185059,26.3574219 L47.1872559,26.3574219 L45.5812988,20.4707031 L46.5158691,20.4707031 C46.8954283,21.9495517 47.1845693,23.0756797 47.3833008,23.8491211 C47.5820322,24.6225625 47.6957193,25.1435533 47.7243652,25.4121094 L47.767334,25.4121094 C47.8067222,25.2080068 47.8702795,24.9439307 47.9580078,24.619873 C48.0457361,24.2958154 48.1218258,24.0389007 48.1862793,23.8491211 L49.2658691,20.4707031 L50.232666,20.4707031 L51.2854004,23.8491211 C51.4859222,24.4650096 51.6219886,24.9824198 51.6936035,25.4013672 L51.7365723,25.4013672 C51.7508953,25.2724603 51.7893877,25.0737318 51.8520508,24.8051758 C51.9147139,24.5366198 52.2880011,23.09181 52.9719238,20.4707031 L53.895752,20.4707031 L52.2683105,26.3574219 L51.2102051,26.3574219 Z M56.3508301,26.3574219 L55.4592285,26.3574219 L55.4592285,20.4707031 L56.3508301,20.4707031 L56.3508301,26.3574219 Z M55.3840332,18.8754883 C55.3840332,18.6713857 55.4341629,18.5218918 55.5344238,18.427002 C55.6346847,18.3321122 55.760009,18.284668 55.9104004,18.284668 C56.0536303,18.284668 56.1771642,18.3330073 56.2810059,18.4296875 C56.3848475,18.5263677 56.4367676,18.6749664 56.4367676,18.8754883 C56.4367676,19.0760101 56.3848475,19.2255041 56.2810059,19.3239746 C56.1771642,19.4224452 56.0536303,19.4716797 55.9104004,19.4716797 C55.760009,19.4716797 55.6346847,19.4224452 55.5344238,19.3239746 C55.4341629,19.2255041 55.3840332,19.0760101 55.3840332,18.8754883 L55.3840332,18.8754883 Z M62.7697754,26.3574219 L62.7697754,22.5493164 C62.7697754,22.0694963 62.6605642,21.711427 62.4421387,21.4750977 C62.2237131,21.2387683 61.8817569,21.1206055 61.4162598,21.1206055 C60.8003713,21.1206055 60.3492039,21.2871077 60.0627441,21.6201172 C59.7762844,21.9531267 59.6330566,22.5027631 59.6330566,23.269043 L59.6330566,26.3574219 L58.7414551,26.3574219 L58.7414551,20.4707031 L59.4665527,20.4707031 L59.6115723,21.2763672 L59.654541,21.2763672 C59.8371591,20.9863267 60.0931787,20.7616382 60.4226074,20.6022949 C60.7520362,20.4429517 61.1190572,20.3632812 61.5236816,20.3632812 C62.2326696,20.3632812 62.7661929,20.5342594 63.1242676,20.8762207 C63.4823423,21.218182 63.661377,21.765133 63.661377,22.5170898 L63.661377,26.3574219 L62.7697754,26.3574219 Z M69.9997559,25.5678711 L69.951416,25.5678711 C69.5396301,26.1658559 68.9237508,26.4648438 68.1037598,26.4648438 C67.3338991,26.4648438 66.7350282,26.2016628 66.3071289,25.675293 C65.8792296,25.1489231 65.6652832,24.4005582 65.6652832,23.4301758 C65.6652832,22.4597933 65.8801248,21.7060574 66.3098145,21.1689453 C66.7395041,20.6318333 67.3374799,20.3632812 68.1037598,20.3632812 C68.9022664,20.3632812 69.5145649,20.6533174 69.9406738,21.2333984 L70.010498,21.2333984 L69.9729004,20.809082 L69.951416,20.3955078 L69.951416,18 L70.8430176,18 L70.8430176,26.3574219 L70.1179199,26.3574219 L69.9997559,25.5678711 Z M68.2165527,25.7182617 C68.8252797,25.7182617 69.2666002,25.5526547 69.5405273,25.2214355 C69.8144545,24.8902164 69.951416,24.355798 69.951416,23.6181641 L69.951416,23.4301758 C69.951416,22.5958617 69.8126641,22.0005714 69.5351562,21.6442871 C69.2576484,21.2880028 68.8145375,21.1098633 68.2058105,21.1098633 C67.6830215,21.1098633 67.282879,21.3130676 67.0053711,21.7194824 C66.7278632,22.1258972 66.5891113,22.6997033 66.5891113,23.440918 C66.5891113,24.1928749 66.726968,24.7604148 67.0026855,25.1435547 C67.2784031,25.5266946 67.6830214,25.7182617 68.2165527,25.7182617 L68.2165527,25.7182617 Z" id="drag--to-make" fill="#4A4A4A" sketch:type="MSShapeGroup"></path>
        <path d="M249.334473,272.567871 L249.286133,272.567871 C248.874347,273.165856 248.258468,273.464844 247.438477,273.464844 C246.668616,273.464844 246.069745,273.201663 245.641846,272.675293 C245.213946,272.148923 245,271.400558 245,270.430176 C245,269.459793 245.214842,268.706057 245.644531,268.168945 C246.074221,267.631833 246.672197,267.363281 247.438477,267.363281 C248.236983,267.363281 248.849282,267.653317 249.275391,268.233398 L249.345215,268.233398 L249.307617,267.809082 L249.286133,267.395508 L249.286133,265 L250.177734,265 L250.177734,273.357422 L249.452637,273.357422 L249.334473,272.567871 Z M247.55127,272.718262 C248.159997,272.718262 248.601317,272.552655 248.875244,272.221436 C249.149171,271.890216 249.286133,271.355798 249.286133,270.618164 L249.286133,270.430176 C249.286133,269.595862 249.147381,269.000571 248.869873,268.644287 C248.592365,268.288003 248.149254,268.109863 247.540527,268.109863 C247.017738,268.109863 246.617596,268.313068 246.340088,268.719482 C246.06258,269.125897 245.923828,269.699703 245.923828,270.440918 C245.923828,271.192875 246.061685,271.760415 246.337402,272.143555 C246.61312,272.526695 247.017738,272.718262 247.55127,272.718262 L247.55127,272.718262 Z M254.753906,267.363281 C255.015301,267.363281 255.249836,267.384765 255.45752,267.427734 L255.333984,268.254883 C255.090494,268.201172 254.875652,268.174316 254.689453,268.174316 C254.213214,268.174316 253.80591,268.367674 253.467529,268.754395 C253.129149,269.141115 252.959961,269.622718 252.959961,270.199219 L252.959961,273.357422 L252.068359,273.357422 L252.068359,267.470703 L252.804199,267.470703 L252.90625,268.561035 L252.949219,268.561035 C253.167644,268.177895 253.430825,267.882488 253.73877,267.674805 C254.046714,267.467121 254.385089,267.363281 254.753906,267.363281 L254.753906,267.363281 Z M259.958496,273.357422 L259.78125,272.519531 L259.738281,272.519531 C259.44466,272.888348 259.151938,273.138102 258.860107,273.268799 C258.568277,273.399496 258.203941,273.464844 257.76709,273.464844 C257.183428,273.464844 256.725994,273.314455 256.394775,273.013672 C256.063556,272.712889 255.897949,272.284996 255.897949,271.72998 C255.897949,270.541172 256.848623,269.918132 258.75,269.86084 L259.749023,269.828613 L259.749023,269.463379 C259.749023,269.001463 259.649659,268.660401 259.450928,268.440186 C259.252196,268.21997 258.93441,268.109863 258.497559,268.109863 C258.006996,268.109863 257.451989,268.260252 256.83252,268.561035 L256.558594,267.878906 C256.848634,267.721353 257.166421,267.597819 257.511963,267.508301 C257.857505,267.418782 258.203937,267.374023 258.55127,267.374023 C259.253096,267.374023 259.773192,267.529784 260.111572,267.841309 C260.449953,268.152834 260.619141,268.65234 260.619141,269.339844 L260.619141,273.357422 L259.958496,273.357422 Z M257.944336,272.729004 C258.499352,272.729004 258.935301,272.576824 259.252197,272.272461 C259.569093,271.968097 259.727539,271.541995 259.727539,270.994141 L259.727539,270.462402 L258.835938,270.5 C258.12695,270.525065 257.615806,270.635172 257.30249,270.830322 C256.989175,271.025473 256.83252,271.328937 256.83252,271.740723 C256.83252,272.06299 256.930093,272.308267 257.125244,272.476562 C257.320395,272.644858 257.593423,272.729004 257.944336,272.729004 L257.944336,272.729004 Z M267.273926,267.470703 L267.273926,268.034668 L266.183594,268.163574 C266.283855,268.2889 266.373372,268.452717 266.452148,268.655029 C266.530925,268.857342 266.570312,269.085611 266.570312,269.339844 C266.570312,269.916344 266.373374,270.376463 265.979492,270.720215 C265.58561,271.063967 265.044925,271.23584 264.357422,271.23584 C264.181965,271.23584 264.017253,271.221517 263.863281,271.192871 C263.483722,271.393393 263.293945,271.645832 263.293945,271.950195 C263.293945,272.111329 263.360188,272.230387 263.492676,272.307373 C263.625163,272.384359 263.852537,272.422852 264.174805,272.422852 L265.216797,272.422852 C265.85417,272.422852 266.34383,272.557128 266.685791,272.825684 C267.027752,273.09424 267.19873,273.484535 267.19873,273.996582 C267.19873,274.648278 266.93734,275.145099 266.414551,275.487061 C265.891762,275.829022 265.129074,276 264.126465,276 C263.356604,276 262.763104,275.856772 262.345947,275.570312 C261.92879,275.283853 261.720215,274.879234 261.720215,274.356445 C261.720215,273.998371 261.834797,273.688641 262.063965,273.427246 C262.293133,273.165852 262.615395,272.988607 263.030762,272.895508 C262.88037,272.827474 262.754151,272.721843 262.6521,272.578613 C262.550048,272.435383 262.499023,272.268881 262.499023,272.079102 C262.499023,271.864257 262.556315,271.67627 262.670898,271.515137 C262.785482,271.354003 262.966307,271.198243 263.213379,271.047852 C262.909015,270.922525 262.661052,270.709474 262.469482,270.408691 C262.277912,270.107909 262.182129,269.764162 262.182129,269.377441 C262.182129,268.732907 262.375486,268.236086 262.762207,267.886963 C263.148928,267.53784 263.696774,267.363281 264.405762,267.363281 C264.713706,267.363281 264.99121,267.399088 265.238281,267.470703 L267.273926,267.470703 Z M262.57959,274.345703 C262.57959,274.66439 262.713866,274.906086 262.982422,275.070801 C263.250978,275.235515 263.635902,275.317871 264.137207,275.317871 C264.885583,275.317871 265.439695,275.205974 265.799561,274.982178 C266.159426,274.758381 266.339355,274.454917 266.339355,274.071777 C266.339355,273.753091 266.240886,273.531983 266.043945,273.408447 C265.847004,273.284911 265.476402,273.223145 264.932129,273.223145 L263.863281,273.223145 C263.458657,273.223145 263.143556,273.319823 262.917969,273.513184 C262.692382,273.706544 262.57959,273.984048 262.57959,274.345703 L262.57959,274.345703 Z M263.062988,269.355957 C263.062988,269.767743 263.179361,270.079263 263.412109,270.290527 C263.644858,270.501791 263.968911,270.607422 264.384277,270.607422 C265.254399,270.607422 265.689453,270.1849 265.689453,269.339844 C265.689453,268.455399 265.249028,268.013184 264.368164,268.013184 C263.949217,268.013184 263.626954,268.125975 263.401367,268.351562 C263.17578,268.57715 263.062988,268.911944 263.062988,269.355957 L263.062988,269.355957 Z M273.241211,272.729004 C273.398764,272.729004 273.550943,272.717367 273.697754,272.694092 C273.844565,272.670817 273.960937,272.646647 274.046875,272.621582 L274.046875,273.303711 C273.950195,273.350261 273.807862,273.388753 273.619873,273.419189 C273.431884,273.449626 273.262696,273.464844 273.112305,273.464844 C271.973627,273.464844 271.404297,272.865078 271.404297,271.665527 L271.404297,268.163574 L270.561035,268.163574 L270.561035,267.733887 L271.404297,267.363281 L271.780273,266.106445 L272.295898,266.106445 L272.295898,267.470703 L274.003906,267.470703 L274.003906,268.163574 L272.295898,268.163574 L272.295898,271.62793 C272.295898,271.982424 272.380045,272.254556 272.54834,272.444336 C272.716635,272.634116 272.94759,272.729004 273.241211,272.729004 L273.241211,272.729004 Z M279.251465,273.357422 L279.251465,269.549316 C279.251465,269.069496 279.142254,268.711427 278.923828,268.475098 C278.705403,268.238768 278.363446,268.120605 277.897949,268.120605 C277.27848,268.120605 276.826417,268.288898 276.541748,268.625488 C276.257079,268.962079 276.114746,269.513505 276.114746,270.279785 L276.114746,273.357422 L275.223145,273.357422 L275.223145,265 L276.114746,265 L276.114746,267.529785 C276.114746,267.834149 276.100423,268.086588 276.071777,268.287109 L276.125488,268.287109 C276.300945,268.00423 276.550698,267.781332 276.874756,267.618408 C277.198813,267.455484 277.56852,267.374023 277.983887,267.374023 C278.703617,267.374023 279.243406,267.545002 279.603271,267.886963 C279.963137,268.228924 280.143066,268.772294 280.143066,269.51709 L280.143066,273.357422 L279.251465,273.357422 Z M284.461426,273.464844 C283.591304,273.464844 282.904706,273.199872 282.401611,272.669922 C281.898516,272.139971 281.646973,271.404139 281.646973,270.462402 C281.646973,269.513504 281.880613,268.759768 282.3479,268.201172 C282.815188,267.642575 283.442704,267.363281 284.230469,267.363281 C284.968103,267.363281 285.551756,267.605873 285.981445,268.091064 C286.411135,268.576256 286.625977,269.216305 286.625977,270.01123 L286.625977,270.575195 L282.570801,270.575195 C282.588705,271.266279 282.763263,271.790851 283.094482,272.148926 C283.425702,272.507 283.892087,272.686035 284.493652,272.686035 C285.127445,272.686035 285.754066,272.55355 286.373535,272.288574 L286.373535,273.083496 C286.058429,273.219564 285.760337,273.317138 285.479248,273.376221 C285.198159,273.435303 284.858889,273.464844 284.461426,273.464844 L284.461426,273.464844 Z M284.219727,268.109863 C283.747068,268.109863 283.3702,268.263833 283.089111,268.571777 C282.808023,268.879722 282.642416,269.305824 282.592285,269.850098 L285.669922,269.850098 C285.669922,269.28792 285.544598,268.857342 285.293945,268.55835 C285.043293,268.259357 284.685224,268.109863 284.219727,268.109863 L284.219727,268.109863 Z M292.904785,272.729004 C293.062338,272.729004 293.214517,272.717367 293.361328,272.694092 C293.508139,272.670817 293.624511,272.646647 293.710449,272.621582 L293.710449,273.303711 C293.613769,273.350261 293.471436,273.388753 293.283447,273.419189 C293.095458,273.449626 292.92627,273.464844 292.775879,273.464844 C291.637201,273.464844 291.067871,272.865078 291.067871,271.665527 L291.067871,268.163574 L290.224609,268.163574 L290.224609,267.733887 L291.067871,267.363281 L291.443848,266.106445 L291.959473,266.106445 L291.959473,267.470703 L293.66748,267.470703 L293.66748,268.163574 L291.959473,268.163574 L291.959473,271.62793 C291.959473,271.982424 292.043619,272.254556 292.211914,272.444336 C292.380209,272.634116 292.611164,272.729004 292.904785,272.729004 L292.904785,272.729004 Z M299.967773,270.408691 C299.967773,271.368332 299.726077,272.117592 299.242676,272.656494 C298.759275,273.195397 298.091476,273.464844 297.239258,273.464844 C296.712888,273.464844 296.245608,273.34131 295.837402,273.094238 C295.429197,272.847167 295.114096,272.492678 294.89209,272.030762 C294.670084,271.568845 294.559082,271.028161 294.559082,270.408691 C294.559082,269.449051 294.798988,268.701581 295.278809,268.16626 C295.758629,267.630938 296.424638,267.363281 297.276855,267.363281 C298.100427,267.363281 298.754799,267.637204 299.23999,268.185059 C299.725181,268.732913 299.967773,269.474116 299.967773,270.408691 L299.967773,270.408691 Z M295.48291,270.408691 C295.48291,271.160648 295.633299,271.733559 295.934082,272.127441 C296.234865,272.521324 296.67708,272.718262 297.260742,272.718262 C297.844404,272.718262 298.287515,272.522219 298.590088,272.130127 C298.892661,271.738035 299.043945,271.164229 299.043945,270.408691 C299.043945,269.660315 298.892661,269.09188 298.590088,268.703369 C298.287515,268.314858 297.840823,268.120605 297.25,268.120605 C296.666338,268.120605 296.225913,268.312173 295.928711,268.695312 C295.631509,269.078452 295.48291,269.649573 295.48291,270.408691 L295.48291,270.408691 Z M304.216309,267.363281 C304.477703,267.363281 304.712239,267.384765 304.919922,267.427734 L304.796387,268.254883 C304.552896,268.201172 304.338054,268.174316 304.151855,268.174316 C303.675616,268.174316 303.268312,268.367674 302.929932,268.754395 C302.591551,269.141115 302.422363,269.622718 302.422363,270.199219 L302.422363,273.357422 L301.530762,273.357422 L301.530762,267.470703 L302.266602,267.470703 L302.368652,268.561035 L302.411621,268.561035 C302.630047,268.177895 302.893228,267.882488 303.201172,267.674805 C303.509116,267.467121 303.847492,267.363281 304.216309,267.363281 L304.216309,267.363281 Z M308.15332,273.464844 C307.301103,273.464844 306.64136,273.202558 306.174072,272.677979 C305.706785,272.153399 305.473145,271.4113 305.473145,270.45166 C305.473145,269.466955 305.710365,268.706057 306.184814,268.168945 C306.659263,267.631833 307.335119,267.363281 308.212402,267.363281 C308.495281,267.363281 308.778156,267.393717 309.061035,267.45459 C309.343914,267.515463 309.565917,267.587076 309.727051,267.669434 L309.453125,268.426758 C309.256184,268.347981 309.041342,268.282634 308.808594,268.230713 C308.575845,268.178792 308.369955,268.152832 308.190918,268.152832 C306.994948,268.152832 306.396973,268.91552 306.396973,270.440918 C306.396973,271.164229 306.542886,271.719236 306.834717,272.105957 C307.126548,272.492678 307.558916,272.686035 308.131836,272.686035 C308.622398,272.686035 309.125486,272.580405 309.641113,272.369141 L309.641113,273.158691 C309.247231,273.362794 308.751305,273.464844 308.15332,273.464844 L308.15332,273.464844 Z M315.065918,273.357422 L315.065918,269.549316 C315.065918,269.069496 314.956707,268.711427 314.738281,268.475098 C314.519856,268.238768 314.177899,268.120605 313.712402,268.120605 C313.092933,268.120605 312.640871,268.288898 312.356201,268.625488 C312.071532,268.962079 311.929199,269.513505 311.929199,270.279785 L311.929199,273.357422 L311.037598,273.357422 L311.037598,265 L311.929199,265 L311.929199,267.529785 C311.929199,267.834149 311.914876,268.086588 311.88623,268.287109 L311.939941,268.287109 C312.115398,268.00423 312.365151,267.781332 312.689209,267.618408 C313.013267,267.455484 313.382973,267.374023 313.79834,267.374023 C314.51807,267.374023 315.05786,267.545002 315.417725,267.886963 C315.77759,268.228924 315.95752,268.772294 315.95752,269.51709 L315.95752,273.357422 L315.065918,273.357422 Z M322.547852,272.729004 C322.705404,272.729004 322.857584,272.717367 323.004395,272.694092 C323.151205,272.670817 323.267578,272.646647 323.353516,272.621582 L323.353516,273.303711 C323.256835,273.350261 323.114503,273.388753 322.926514,273.419189 C322.738524,273.449626 322.569337,273.464844 322.418945,273.464844 C321.280268,273.464844 320.710938,272.865078 320.710938,271.665527 L320.710938,268.163574 L319.867676,268.163574 L319.867676,267.733887 L320.710938,267.363281 L321.086914,266.106445 L321.602539,266.106445 L321.602539,267.470703 L323.310547,267.470703 L323.310547,268.163574 L321.602539,268.163574 L321.602539,271.62793 C321.602539,271.982424 321.686685,272.254556 321.85498,272.444336 C322.023276,272.634116 322.25423,272.729004 322.547852,272.729004 L322.547852,272.729004 Z M329.61084,270.408691 C329.61084,271.368332 329.369143,272.117592 328.885742,272.656494 C328.402341,273.195397 327.734542,273.464844 326.882324,273.464844 C326.355954,273.464844 325.888674,273.34131 325.480469,273.094238 C325.072264,272.847167 324.757163,272.492678 324.535156,272.030762 C324.31315,271.568845 324.202148,271.028161 324.202148,270.408691 C324.202148,269.449051 324.442055,268.701581 324.921875,268.16626 C325.401695,267.630938 326.067704,267.363281 326.919922,267.363281 C327.743494,267.363281 328.397865,267.637204 328.883057,268.185059 C329.368248,268.732913 329.61084,269.474116 329.61084,270.408691 L329.61084,270.408691 Z M325.125977,270.408691 C325.125977,271.160648 325.276366,271.733559 325.577148,272.127441 C325.877931,272.521324 326.320147,272.718262 326.903809,272.718262 C327.48747,272.718262 327.930581,272.522219 328.233154,272.130127 C328.535727,271.738035 328.687012,271.164229 328.687012,270.408691 C328.687012,269.660315 328.535727,269.09188 328.233154,268.703369 C327.930581,268.314858 327.48389,268.120605 326.893066,268.120605 C326.309405,268.120605 325.868979,268.312173 325.571777,268.695312 C325.274575,269.078452 325.125977,269.649573 325.125977,270.408691 L325.125977,270.408691 Z M256.757324,288.357422 L256.757324,284.527832 C256.757324,284.058754 256.657065,283.706951 256.456543,283.472412 C256.256021,283.237873 255.944501,283.120605 255.521973,283.120605 C254.966957,283.120605 254.556967,283.279946 254.291992,283.598633 C254.027017,283.917319 253.894531,284.407874 253.894531,285.070312 L253.894531,288.357422 L253.00293,288.357422 L253.00293,284.527832 C253.00293,284.058754 252.90267,283.706951 252.702148,283.472412 C252.501627,283.237873 252.188316,283.120605 251.762207,283.120605 C251.20361,283.120605 250.794516,283.288003 250.534912,283.622803 C250.275308,283.957603 250.145508,284.506344 250.145508,285.269043 L250.145508,288.357422 L249.253906,288.357422 L249.253906,282.470703 L249.979004,282.470703 L250.124023,283.276367 L250.166992,283.276367 C250.335287,282.989907 250.572508,282.766114 250.878662,282.60498 C251.184816,282.443847 251.527667,282.363281 251.907227,282.363281 C252.827479,282.363281 253.429035,282.696286 253.711914,283.362305 L253.754883,283.362305 C253.930339,283.05436 254.184569,282.810873 254.517578,282.631836 C254.850588,282.452799 255.230141,282.363281 255.65625,282.363281 C256.322269,282.363281 256.820881,282.534259 257.1521,282.876221 C257.483319,283.218182 257.648926,283.765133 257.648926,284.51709 L257.648926,288.357422 L256.757324,288.357422 Z M264.566895,285.408691 C264.566895,286.368332 264.325198,287.117592 263.841797,287.656494 C263.358396,288.195397 262.690597,288.464844 261.838379,288.464844 C261.312009,288.464844 260.844729,288.34131 260.436523,288.094238 C260.028318,287.847167 259.713217,287.492678 259.491211,287.030762 C259.269205,286.568845 259.158203,286.028161 259.158203,285.408691 C259.158203,284.449051 259.39811,283.701581 259.87793,283.16626 C260.35775,282.630938 261.023759,282.363281 261.875977,282.363281 C262.699548,282.363281 263.35392,282.637204 263.839111,283.185059 C264.324303,283.732913 264.566895,284.474116 264.566895,285.408691 L264.566895,285.408691 Z M260.082031,285.408691 C260.082031,286.160648 260.23242,286.733559 260.533203,287.127441 C260.833986,287.521324 261.276202,287.718262 261.859863,287.718262 C262.443525,287.718262 262.886636,287.522219 263.189209,287.130127 C263.491782,286.738035 263.643066,286.164229 263.643066,285.408691 C263.643066,284.660315 263.491782,284.09188 263.189209,283.703369 C262.886636,283.314858 262.439944,283.120605 261.849121,283.120605 C261.265459,283.120605 260.825034,283.312173 260.527832,283.695312 C260.23063,284.078452 260.082031,284.649573 260.082031,285.408691 L260.082031,285.408691 Z M267.19873,288.357422 L264.964355,282.470703 L265.92041,282.470703 L267.187988,285.961914 C267.474448,286.778324 267.642741,287.308267 267.692871,287.551758 L267.73584,287.551758 C267.775228,287.361978 267.899657,286.968997 268.109131,286.372803 C268.318605,285.776608 268.788571,284.475921 269.519043,282.470703 L270.475098,282.470703 L268.240723,288.357422 L267.19873,288.357422 Z M273.907227,288.464844 C273.037105,288.464844 272.350507,288.199872 271.847412,287.669922 C271.344317,287.139971 271.092773,286.404139 271.092773,285.462402 C271.092773,284.513504 271.326414,283.759768 271.793701,283.201172 C272.260989,282.642575 272.888505,282.363281 273.67627,282.363281 C274.413903,282.363281 274.997556,282.605873 275.427246,283.091064 C275.856936,283.576256 276.071777,284.216305 276.071777,285.01123 L276.071777,285.575195 L272.016602,285.575195 C272.034505,286.266279 272.209064,286.790851 272.540283,287.148926 C272.871502,287.507 273.337888,287.686035 273.939453,287.686035 C274.573245,287.686035 275.199867,287.55355 275.819336,287.288574 L275.819336,288.083496 C275.50423,288.219564 275.206137,288.317138 274.925049,288.376221 C274.64396,288.435303 274.304689,288.464844 273.907227,288.464844 L273.907227,288.464844 Z M273.665527,283.109863 C273.192869,283.109863 272.816001,283.263833 272.534912,283.571777 C272.253823,283.879722 272.088216,284.305824 272.038086,284.850098 L275.115723,284.850098 C275.115723,284.28792 274.990398,283.857342 274.739746,283.55835 C274.489094,283.259357 274.131024,283.109863 273.665527,283.109863 L273.665527,283.109863 Z M281.34082,288.357422 L280.449219,288.357422 L280.449219,282.470703 L281.34082,282.470703 L281.34082,288.357422 Z M280.374023,280.875488 C280.374023,280.671386 280.424153,280.521892 280.524414,280.427002 C280.624675,280.332112 280.749999,280.284668 280.900391,280.284668 C281.043621,280.284668 281.167154,280.333007 281.270996,280.429688 C281.374838,280.526368 281.426758,280.674966 281.426758,280.875488 C281.426758,281.07601 281.374838,281.225504 281.270996,281.323975 C281.167154,281.422445 281.043621,281.47168 280.900391,281.47168 C280.749999,281.47168 280.624675,281.422445 280.524414,281.323975 C280.424153,281.225504 280.374023,281.07601 280.374023,280.875488 L280.374023,280.875488 Z M285.132812,287.729004 C285.290365,287.729004 285.442545,287.717367 285.589355,287.694092 C285.736166,287.670817 285.852539,287.646647 285.938477,287.621582 L285.938477,288.303711 C285.841796,288.350261 285.699464,288.388753 285.511475,288.419189 C285.323485,288.449626 285.154298,288.464844 285.003906,288.464844 C283.865229,288.464844 283.295898,287.865078 283.295898,286.665527 L283.295898,283.163574 L282.452637,283.163574 L282.452637,282.733887 L283.295898,282.363281 L283.671875,281.106445 L284.1875,281.106445 L284.1875,282.470703 L285.895508,282.470703 L285.895508,283.163574 L284.1875,283.163574 L284.1875,286.62793 C284.1875,286.982424 284.271646,287.254556 284.439941,287.444336 C284.608237,287.634116 284.839191,287.729004 285.132812,287.729004 L285.132812,287.729004 Z M293.592285,288.357422 L293.415039,287.519531 L293.37207,287.519531 C293.078449,287.888348 292.785727,288.138102 292.493896,288.268799 C292.202066,288.399496 291.83773,288.464844 291.400879,288.464844 C290.817217,288.464844 290.359784,288.314455 290.028564,288.013672 C289.697345,287.712889 289.531738,287.284996 289.531738,286.72998 C289.531738,285.541172 290.482412,284.918132 292.383789,284.86084 L293.382812,284.828613 L293.382812,284.463379 C293.382812,284.001463 293.283448,283.660401 293.084717,283.440186 C292.885985,283.21997 292.568199,283.109863 292.131348,283.109863 C291.640785,283.109863 291.085778,283.260252 290.466309,283.561035 L290.192383,282.878906 C290.482423,282.721353 290.80021,282.597819 291.145752,282.508301 C291.491294,282.418782 291.837726,282.374023 292.185059,282.374023 C292.886885,282.374023 293.406981,282.529784 293.745361,282.841309 C294.083742,283.152834 294.25293,283.65234 294.25293,284.339844 L294.25293,288.357422 L293.592285,288.357422 Z M291.578125,287.729004 C292.133141,287.729004 292.56909,287.576824 292.885986,287.272461 C293.202882,286.968097 293.361328,286.541995 293.361328,285.994141 L293.361328,285.462402 L292.469727,285.5 C291.760739,285.525065 291.249595,285.635172 290.936279,285.830322 C290.622964,286.025473 290.466309,286.328937 290.466309,286.740723 C290.466309,287.06299 290.563882,287.308267 290.759033,287.476562 C290.954184,287.644858 291.227212,287.729004 291.578125,287.729004 L291.578125,287.729004 Z M298.775391,282.363281 C299.036785,282.363281 299.271321,282.384765 299.479004,282.427734 L299.355469,283.254883 C299.111978,283.201172 298.897136,283.174316 298.710938,283.174316 C298.234698,283.174316 297.827394,283.367674 297.489014,283.754395 C297.150633,284.141115 296.981445,284.622718 296.981445,285.199219 L296.981445,288.357422 L296.089844,288.357422 L296.089844,282.470703 L296.825684,282.470703 L296.927734,283.561035 L296.970703,283.561035 C297.189129,283.177895 297.45231,282.882488 297.760254,282.674805 C298.068198,282.467121 298.406574,282.363281 298.775391,282.363281 L298.775391,282.363281 Z M305.440918,285.408691 C305.440918,286.368332 305.199221,287.117592 304.71582,287.656494 C304.232419,288.195397 303.56462,288.464844 302.712402,288.464844 C302.186033,288.464844 301.718752,288.34131 301.310547,288.094238 C300.902342,287.847167 300.587241,287.492678 300.365234,287.030762 C300.143228,286.568845 300.032227,286.028161 300.032227,285.408691 C300.032227,284.449051 300.272133,283.701581 300.751953,283.16626 C301.231773,282.630938 301.897782,282.363281 302.75,282.363281 C303.573572,282.363281 304.227944,282.637204 304.713135,283.185059 C305.198326,283.732913 305.440918,284.474116 305.440918,285.408691 L305.440918,285.408691 Z M300.956055,285.408691 C300.956055,286.160648 301.106444,286.733559 301.407227,287.127441 C301.708009,287.521324 302.150225,287.718262 302.733887,287.718262 C303.317548,287.718262 303.760659,287.522219 304.063232,287.130127 C304.365806,286.738035 304.51709,286.164229 304.51709,285.408691 C304.51709,284.660315 304.365806,284.09188 304.063232,283.703369 C303.760659,283.314858 303.313968,283.120605 302.723145,283.120605 C302.139483,283.120605 301.699057,283.312173 301.401855,283.695312 C301.104653,284.078452 300.956055,284.649573 300.956055,285.408691 L300.956055,285.408691 Z M307.841797,282.470703 L307.841797,286.289551 C307.841797,286.769371 307.951008,287.12744 308.169434,287.36377 C308.387859,287.600099 308.729815,287.718262 309.195312,287.718262 C309.811201,287.718262 310.261473,287.549969 310.546143,287.213379 C310.830812,286.876789 310.973145,286.327152 310.973145,285.564453 L310.973145,282.470703 L311.864746,282.470703 L311.864746,288.357422 L311.128906,288.357422 L311,287.567871 L310.95166,287.567871 C310.769042,287.857912 310.515708,288.079915 310.19165,288.233887 C309.867593,288.387859 309.497886,288.464844 309.08252,288.464844 C308.36637,288.464844 307.830161,288.294761 307.473877,287.95459 C307.117593,287.614419 306.939453,287.070153 306.939453,286.321777 L306.939453,282.470703 L307.841797,282.470703 Z M317.783691,288.357422 L317.783691,284.549316 C317.783691,284.069496 317.67448,283.711427 317.456055,283.475098 C317.237629,283.238768 316.895673,283.120605 316.430176,283.120605 C315.814287,283.120605 315.36312,283.287108 315.07666,283.620117 C314.7902,283.953127 314.646973,284.502763 314.646973,285.269043 L314.646973,288.357422 L313.755371,288.357422 L313.755371,282.470703 L314.480469,282.470703 L314.625488,283.276367 L314.668457,283.276367 C314.851075,282.986327 315.107095,282.761638 315.436523,282.602295 C315.765952,282.442952 316.132973,282.363281 316.537598,282.363281 C317.246586,282.363281 317.780109,282.534259 318.138184,282.876221 C318.496258,283.218182 318.675293,283.765133 318.675293,284.51709 L318.675293,288.357422 L317.783691,288.357422 Z M324.513672,287.567871 L324.465332,287.567871 C324.053546,288.165856 323.437667,288.464844 322.617676,288.464844 C321.847815,288.464844 321.248944,288.201663 320.821045,287.675293 C320.393146,287.148923 320.179199,286.400558 320.179199,285.430176 C320.179199,284.459793 320.394041,283.706057 320.82373,283.168945 C321.25342,282.631833 321.851396,282.363281 322.617676,282.363281 C323.416182,282.363281 324.028481,282.653317 324.45459,283.233398 L324.524414,283.233398 L324.486816,282.809082 L324.465332,282.395508 L324.465332,280 L325.356934,280 L325.356934,288.357422 L324.631836,288.357422 L324.513672,287.567871 Z M322.730469,287.718262 C323.339196,287.718262 323.780516,287.552655 324.054443,287.221436 C324.328371,286.890216 324.465332,286.355798 324.465332,285.618164 L324.465332,285.430176 C324.465332,284.595862 324.32658,284.000571 324.049072,283.644287 C323.771564,283.288003 323.328454,283.109863 322.719727,283.109863 C322.196937,283.109863 321.796795,283.313068 321.519287,283.719482 C321.241779,284.125897 321.103027,284.699703 321.103027,285.440918 C321.103027,286.192875 321.240884,286.760415 321.516602,287.143555 C321.792319,287.526695 322.196937,287.718262 322.730469,287.718262 L322.730469,287.718262 Z" id="drag-the-torch-to" fill="#4A4A4A" sketch:type="MSShapeGroup"></path>
    </g>
</svg>