<?xml version="1.0" encoding="UTF-8" standalone="no"?>
<svg width="73px" height="144px" viewBox="0 0 73 144" version="1.1" xmlns="http://www.w3.org/2000/svg" xmlns:xlink="http://www.w3.org/1999/xlink" xmlns:sketch="http://www.bohemiancoding.com/sketch/ns">
    <!-- Generator: Sketch 3.1.1 (8761) - http://www.bohemiancoding.com/sketch -->
    <title>torch</title>
    <desc>Created with Sketch.</desc>
    <defs>
        <linearGradient x1="60.41441%" y1="35.56969%" x2="69.8404994%" y2="78.4494885%" id="linearGradient-1">
            <stop stop-color="#E5CDC8" stop-opacity="1.13753861" offset="0%"></stop>
            <stop stop-color="#E8D3CE" offset="50%"></stop>
            <stop stop-color="#E5CDC7" stop-opacity="0" offset="100%"></stop>
        </linearGradient>
    </defs>
    <g id="Page-1" stroke="none" stroke-width="1" fill="none" fill-rule="evenodd" sketch:type="MSPage">
        <g id="Group-+-Rectangle-1-+-Rectangle-3" sketch:type="MSLayerGroup" transform="translate(0.000000, 1.000000)">
            <g id="Group" sketch:type="MSShapeGroup">
                <path d="M20.915608,0.0561686444 C23.3221416,1.74824906 25.0916515,4.19860617 25.5092559,7.13341784 C26.054265,4.21264833 27.7813067,1.71314365 30.2515426,0.063189725 C31.0584392,0.7582767 31.8936479,1.41825827 32.6863884,2.12738741 C33.9604356,3.58777216 34.6257713,5.43431635 34.8381125,7.33702918 C35.3052632,4.2969013 36.6943778,1.8886036 39.2849404,0.238649673 C39.2914229,1.06602117 39.1819562,7.7280411 39.227995,8.38391974 C26.6644741,8.58753107 14.5949183,8.35508586 2.03139746,8.13743236 C2.08094374,5.44133743 2.03139746,2.7452425 2.08094374,0.0421264833 C4.68566243,1.70612257 6.45517241,4.3671121 6.92232305,7.40723998 C7.12758621,6.11536116 7.38947368,4.82348234 7.91324864,3.62287757 C8.93956443,2.28185118 10.1782214,1.13039397 11.4451906,0.0210632417 C13.9295826,1.67101717 15.6637024,4.17052185 16.2370236,7.10533352 C16.668784,4.16350077 18.438294,1.66399609 20.915608,0.0561686444 Z" id="Shape" fill="#4A4A4A"></path>
                <path d="M3.7584392,11.7659576 C15.2956443,11.4845472 26.8470054,11.5527679 38.3842105,11.7233196 C33.8896552,12.5249128 30.3647913,17.334472 30.2019964,22.8006554 C23.9874773,23.056483 17.7517241,23.0820657 11.5372051,22.7836002 C11.3673321,17.4879685 8.05480944,12.8404335 3.7584392,11.7659576 L3.7584392,11.7659576 Z" id="Shape" fill="#4A4A4A"></path>
                <path d="M30,24 C29.9663048,24.9550961 29.9663048,34.3973925 30,38 C29.6158742,42.2402509 32.3463542,56.8554688 22.5755208,54.3769531 C11.2389323,54.7480469 11.9595657,39.4412343 12,34 C11.9595657,30.5250689 12.0673905,27.3051476 12,24 C17.9977537,23.9589549 24.0022463,23.9800001 30,24 Z" id="Shape" fill="#4A4A4A"></path>
                <path d="M11.4593466,49.4464638 C12.9669691,50.9911015 14.6656987,52.3602122 15.9892922,54.0733559 C16.484755,56.2498908 16.2441016,58.5598263 17.0580762,60.6731716 C18.8205082,65.6300544 23.6123412,69.4144169 28.9421053,69.7584498 C27.9299456,70.8467173 26.8823956,71.9069005 25.6862069,72.7985777 C22.6001815,74.2659835 18.9903811,74.2308781 15.9255898,72.7283669 C13.4058076,70.9730967 11.4947368,68.1857278 11.4805808,65.0543258 C11.3885662,59.8517052 11.4735027,54.6490845 11.4593466,49.4464638 L11.4593466,49.4464638 Z" id="Shape" fill="#4A4A4A"></path>
                <path d="M3.55271368e-15,11 C-0.231077419,9.2421875 0.700323119,8.453125 2,8 C14.2409113,8.2421875 26.7795382,8.2421875 39,8 C40.2425096,8.4453125 41.3291436,9.3203125 41,11 C40.4189112,12.046875 39.0570908,11.8515625 38,12 C26.4549592,11.8046875 14.9394617,11.7421875 3,12 C2.21032096,11.8828125 0.636818537,12.140625 3.55271368e-15,11 L3.55271368e-15,11 Z" id="Shape" fill="#AEAEAE"></path>
                <path d="M12,25 C9.47827774,24.4427481 9.41492579,21.351145 12,21 C17.8970476,21.2671756 24.0984993,21.2442748 30,21 C32.5806211,21.351145 32.5243082,24.4351145 30,25 C24.1407339,24.8778626 17.8688912,24.8549618 12,25 L12,25 Z" id="Shape" fill="#AEAEAE"></path>
                <path d="M37,32 C42.2971684,48.3690103 48.0881553,64.9431948 54,82 C54,82 67.3826158,122.734271 66,126 C60.9336451,134.749258 35.2978375,115.216971 31,115 C28.7264668,115.216971 30,82 30,82 C30.3372115,78.0039902 30.351475,74.4694785 30,71 C30.0162824,70.9068033 29.3886878,70.8434355 29,71 C23.7046772,70.47027 18.8764776,66.6752464 17,62 C16.2805179,59.5851003 16.5229977,57.2686574 16,55 C14.6901361,53.3680209 12.9785143,51.9950532 11,50 C8.27155455,47.2424726 4.99094621,44.1304125 2,41 C-0.379266999,38.7089503 -0.992598123,34.0408601 2,33 C5.36179759,31.527273 8.97046676,32.0201332 12,34 C11.3810007,39.8143653 16.1878051,45.0879695 22,45 C26.2653892,45.0493584 30.0662047,42.6236685 30,39 C29.8925781,35.015625 30.1874446,30.872473 30,27 C33.0972015,27.4576559 35.757347,29.0418494 37,32 Z" id="Shape" fill="url(#linearGradient-1)"></path>
                <path d="M15.9255898,72.7283669 C18.9903811,74.2308781 22.6001815,74.2659835 25.6862069,72.7985777 C26.0259528,75.7755158 23.7751361,78.9630864 20.5475499,78.7033064 C17.4615245,78.6401167 15.5292196,75.5719045 15.9255898,72.7283669 L15.9255898,72.7283669 Z" id="Shape" fill="#AEAEAE"></path>
            </g>
        </g>
    </g>
</svg>